<?xml version="1.0" encoding="utf-8"?>
<!-- Generator: Adobe Illustrator 24.3.0, SVG Export Plug-In . SVG Version: 6.00 Build 0)  -->
<svg version="1.1" id="Capa_1" xmlns="http://www.w3.org/2000/svg" xmlns:xlink="http://www.w3.org/1999/xlink" x="0px" y="0px"
	 viewBox="0 0 194 50" style="enable-background:new 0 0 194 50;" xml:space="preserve">
<style type="text/css">
	.st0{display:none;}
	.st1{display:inline;}
	.st2{fill:#FFFFFF;}
	.st3{fill:#9664C5;}
	.st4{font-family:'Arbotek-Thin';}
	.st5{font-size:40.1107px;}
	.st6{font-family:'Capitolium2-Italic';}
	.st7{font-size:49.5567px;}
	.st8{fill:none;stroke:#000000;stroke-width:0.25;stroke-miterlimit:10;}
</style>
<g class="st0">
	<g class="st1">
		<g>
			<path class="st2" d="M-212.5,10.2l0.7-0.2l6.6,25.4l6.9-11.5l6.9,11.5l6.6-25.4l0.7,0.2l-6.8,26.4h-0.8l-6.6-11.1l-6.6,11.1h-0.8
				L-212.5,10.2z"/>
			<polygon class="st2" points="-184.9,10 -191.5,35.5 -198.4,24 -205.2,35.5 -211.8,10 -212.5,10.2 -205.8,36.6 -205,36.6 
				-198.4,25.4 -191.8,36.6 -191,36.6 -184.2,10.2 			"/>
		</g>
		<g>
			<circle class="st2" cx="-177.7" cy="11.6" r="0.8"/>
			<path class="st2" d="M-177.7,11.3c0.2,0,0.3,0.1,0.3,0.3s-0.1,0.3-0.3,0.3s-0.3-0.1-0.3-0.3C-178,11.5-177.9,11.3-177.7,11.3
				 M-177.7,10.3c-0.7,0-1.3,0.6-1.3,1.3c0,0.7,0.6,1.3,1.3,1.3s1.3-0.6,1.3-1.3S-177,10.3-177.7,10.3L-177.7,10.3z M-177.4,17.1
				h-0.8v13.1c0,4.2,1.9,6.3,5.1,6.3v-0.8c-2.8,0-4.4-1.8-4.4-5.5L-177.4,17.1L-177.4,17.1z"/>
		</g>
		<g>
			<path class="st2" d="M-170.1,17.1h2.6v-5.6h0.8v5.6h10.7v0.7h-10.7v11.4c0,4.2,1.9,6.7,5.9,6.7c1.9,0,3.4-0.6,4.9-1.4l0.4,0.7
				c-1.6,0.9-3.2,1.5-5.3,1.5c-4.5,0-6.6-2.8-6.6-7.5V17.8h-2.6V17.1z"/>
			<path class="st2" d="M-166.7,11.5h-0.8v5.6h-2.6v0.7h2.6v11.4c0,4.7,2.1,7.5,6.6,7.5c2.2,0,3.7-0.6,5.3-1.5l-0.4-0.7
				c-1.5,0.8-3,1.4-4.9,1.4c-4,0-5.9-2.5-5.9-6.7V17.8h10.7v-0.7h-10.7V11.5L-166.7,11.5z"/>
		</g>
		<g>
			<path class="st2" d="M-151.5,36.2V10.3h0.8v10.9c1.1-2.1,3.6-4.5,8.7-4.5c5.3,0,8.4,3.4,8.4,8.8v10.6h-0.8V25.5
				c0-5.1-2.8-8.1-7.7-8.1c-5.7,0-7.8,3.3-8.7,5.5v13.2C-150.7,36.2-151.5,36.2-151.5,36.2z"/>
			<path class="st2" d="M-150.7,10.3h-0.8v25.8h0.8V22.9c0.8-2.1,3-5.5,8.6-5.5c4.9,0,7.7,3,7.7,8v10.6h0.8V25.5
				c0-5.5-3.2-8.8-8.4-8.8c-5.1,0-7.5,2.4-8.7,4.5L-150.7,10.3L-150.7,10.3z"/>
		</g>
	</g>
	<g class="st1">
		<g>
			<path class="st2" d="M-107.8,36.2c-2.1,0-4.9-0.3-7-0.9c0-0.1,0.1-1,0.1-1c0.1-0.9,0.3-1.7,0.3-3.3c0.3,1.1,0.9,2.1,1.6,2.8
				c1.2,1.1,2.8,1.7,4.9,1.7c6.8,0,7.5-5.1,7.5-7.3c0-2.3-1-4-3.2-5.8l-4.2-3.2c-3.1-2.4-4.2-4.3-4.2-7.1c0-1.9,0.7-7.9,9.3-7.9h0.1
				c2.4,0,4.9,0.2,6.9,0.5c-0.1,0.6-0.2,1.1-0.3,1.7c0,0.3-0.1,0.5-0.1,0.8c-0.1,0.6-0.2,1.3-0.3,1.9c-0.2-1.1-0.8-2.1-1.5-2.8
				c-1.1-1-2.7-1.5-4.7-1.5c-6.5,0-7.1,4.8-7.1,6.2c0,2.5,0.9,4.1,3.5,5.9l4.2,3c3.1,2.2,4.2,4.3,4.2,7.6
				C-97.8,28.4-98,36.2-107.8,36.2z"/>
			<path class="st2" d="M-99.4,4.8c1.1,0.1,2.2,0.2,3.1,0.3c-0.1,0.4-0.1,0.8-0.2,1.2c0,0.3-0.1,0.5-0.1,0.7c0,0,0,0,0,0
				c-0.3-0.4-0.6-0.8-0.9-1.2C-98.1,5.4-98.7,5.1-99.4,4.8 M-107.4,5.5c-2.4,1.6-2.7,4.4-2.7,5.4c0,2.7,1,4.4,3.7,6.3l4.2,3
				c2.9,2.1,4,4.1,4,7.2c0,0.7-0.2,5.5-5.1,7.4c2.2-1.3,3.4-3.6,3.4-6.7c0-2.4-1.1-4.3-3.4-6.2l-4.2-3.2c-3-2.3-4-4-4-6.7
				C-111.6,10.8-111.2,7.2-107.4,5.5 M-114.1,33.1c0.3,0.4,0.6,0.8,0.9,1.2c0.6,0.5,1.2,0.9,1.9,1.2c-1.1-0.1-2.1-0.3-3-0.5
				c0-0.2,0.1-0.4,0.1-0.5C-114.2,34-114.1,33.5-114.1,33.1 M-102.7,3.7c-8.5,0-9.8,5.7-9.8,8.4c0,3.1,1.3,5.1,4.4,7.5l4.2,3.2
				c2.2,1.7,3,3.4,3,5.4c0,1.2-0.1,6.8-7,6.8c-2,0-3.4-0.5-4.5-1.5c-0.9-0.9-1.5-2.1-1.7-3.8h-0.7c-0.1,2.9-0.3,3.7-0.4,5.2
				c-0.1,0.4-0.1,0.3-0.1,0.7c2.1,0.7,5.2,1,7.6,1c9.1,0,10.6-6.5,10.6-9.1c0-3.3-1.1-5.6-4.4-8l-4.2-3c-2.5-1.8-3.3-3.3-3.3-5.5
				c0-1.1,0.3-5.7,6.6-5.7c1.8,0,3.3,0.4,4.3,1.4c1,0.9,1.5,2.3,1.5,4h0.7c0-0.6,0.2-2.2,0.3-3.4c0.2-1,0.3-2,0.5-3
				C-97.2,3.9-100,3.7-102.7,3.7C-102.7,3.7-102.7,3.7-102.7,3.7L-102.7,3.7z"/>
		</g>
		<g>
			<path class="st2" d="M-88.1,36.2c-2.3,0-3.3-1.1-3.3-3.5c0-1.3,0.2-2.5,0.5-4.2l2.3-13.1h-2.7c0.7-0.2,1.7-0.5,2.3-1.2l0.1-0.1
				c0.4-0.4,1.3-1.4,2.3-4.9l0.1-0.4l1.6-0.2c-0.2,1.2-0.7,3.9-1,5.5l-0.1,0.6h6.2l-0.1,0.7h-6.2l-2.3,14.4c-0.1,0.5-0.2,1.4-0.2,2
				c0,1.7,0.9,2.7,2.5,2.7c1,0,2.1-0.4,3.4-1.2C-85,35.8-86.8,36.2-88.1,36.2z"/>
			<path class="st2" d="M-85.5,9.1c-0.3,1.4-0.6,3.5-0.8,4.9l-0.1,0.9h0l-0.1,0.8l-2.3,14c-0.1,0.6-0.2,1.4-0.2,2.1
				c0,2,1.1,3.2,3,3.2c0.2,0,0.4,0,0.6,0c-1.1,0.6-1.9,0.7-2.6,0.7c-2,0-2.8-0.9-2.8-3c0-1.2,0.2-2.5,0.5-4.1l2.2-12.5l0.2-1.2h-1
				c0.1-0.1,0.3-0.2,0.4-0.3l0-0.1l0,0l0-0.1c0.4-0.4,1.4-1.5,2.4-5.1l0-0.1L-85.5,9.1 M-84.3,8l-2.7,0.3l-0.2,0.7
				c-1,3.7-2,4.5-2.2,4.8c-0.8,0.8-2.5,1.1-2.9,1.2l-0.2,0.8h3.2l-2.2,12.5c-0.3,1.6-0.5,3-0.5,4.3c0,2.1,0.8,4,3.8,4
				c2.1,0,4.4-1,7-4.6l-0.3-0.4c-2.8,2.3-4.4,2.3-4.7,2.3c-1.6,0-2-1.1-2-2.2c0-0.6,0.1-1.4,0.2-2l2.3-14h6.2l0.3-1.7h-6.2
				C-85,12-84.3,8-84.3,8L-84.3,8z"/>
		</g>
		<g>
			<path class="st2" d="M-82.3,49c-0.9,0-3.9-0.1-3.9-2c0-0.7,0.5-1.4,1.3-1.4c0.7,0,0.9,0.4,1.1,0.8c0,0,0.2,0.4,0.3,0.5
				c0.4,0.8,0.8,1.5,2,1.5c0.9,0,3.1,0,5.9-4.2c0.9-1.3,1.2-1.8,4.1-7l0.1-0.2l-3.5-19.2c-0.2-1.1-0.4-2-1.6-2c-0.5,0-1,0.3-1.5,0.9
				c1.8-2.7,3.1-2.7,3.9-2.7c0.9,0,1.4,0.4,1.7,1.4c0.2,0.7,1.9,9.4,2.8,17.6l0.2,1.7l0.8-1.6c5.3-10.9,6.3-13.6,6.3-14.6
				c0-0.6-0.2-0.9-0.6-1.4L-63,17c-0.3-0.4-0.6-0.8-0.6-1.5c0-0.4,0.3-1.5,1.9-1.5c0.8,0,1.8,0.2,1.8,1.9c0,1-0.4,2.1-1.3,4.2
				c-3.2,7.2-10.4,19.9-12.2,22.6C-76.7,48.1-78.8,49-82.3,49z"/>
			<path class="st2" d="M-61.6,14.5c0.8,0,1.3,0.2,1.3,1.4c0,0.9-0.3,2-1.2,4c-1.1,2.5-2.8,5.8-4.5,9c3.5-7.4,4.2-9.4,4.2-10.4
				c0-0.8-0.3-1.2-0.7-1.8l-0.1-0.1c-0.3-0.4-0.5-0.6-0.5-1.2C-63,15.5-62.9,14.5-61.6,14.5 M-74.1,14.5c0.6,0,1,0.2,1.3,1
				c0.2,0.7,1.9,9.5,2.8,17.6l0.3,2.7c-1.8,3.1-3.3,5.7-3.9,6.7c-0.7,1.1-1.3,2-1.9,2.7c0.2-0.2,0.4-0.5,0.6-0.8c1-1.4,1.4-2,4.1-7
				l0.2-0.3l-0.1-0.3L-74.3,18l0-0.2c-0.2-1.1-0.4-2.3-1.9-2.4C-75.3,14.5-74.6,14.5-74.1,14.5 M-84.9,46.1c0.4,0,0.5,0.1,0.7,0.5
				l0.1,0.1c0.1,0.2,0.1,0.3,0.2,0.4c0.2,0.5,0.5,1,1,1.3c-1-0.1-2.8-0.3-2.8-1.4C-85.7,46.6-85.4,46.1-84.9,46.1 M-61.6,13.5
				c-1.8,0-2.4,1.4-2.4,2c0,0.9,0.3,1.3,0.7,1.8s0.5,0.7,0.5,1.2c0,1-1.3,4.3-6.3,14.4c-0.9-8.1-2.6-16.9-2.8-17.7
				c-0.3-1.1-1-1.7-2.2-1.7c-1.3,0-3,0.3-5.2,4.4l0.6,0.4c0.7-1,1.5-2,2.2-2c0.8,0,0.9,0.5,1.1,1.8l3.4,18.8c-2.8,5.1-3.1,5.7-4,7
				c-2.7,3.9-4.6,4-5.5,4c-1.1,0-1.2-0.7-1.8-1.7c-0.2-0.3-0.5-1.1-1.6-1.1c-1.1,0-1.8,0.9-1.8,1.9c0,2.4,3.7,2.5,4.4,2.5
				c3.6,0,6-1,9.4-6.4c1.8-2.8,9-15.4,12.2-22.7c0.9-2.1,1.3-3.4,1.3-4.4C-59.3,14.6-59.9,13.5-61.6,13.5L-61.6,13.5z"/>
		</g>
		<g>
			<path class="st2" d="M-54.4,36.1c-1.7,0-1.9-1-1.9-1.9c0-0.7,0.2-1.9,0.4-3c1.9-11.3,4.1-25.2,4.1-27.1c0-1.4-0.6-2-1.6-2.3
				c1.1-0.1,2.2-0.2,2.6-0.3c1-0.1,1.8-0.3,2.5-0.5c-1.2,5.4-5,30.2-5,31.7c0,1.2,0.7,1.5,1.3,1.5c0.7,0,1.3-0.4,1.8-0.9
				C-51.3,34.7-52.7,36.1-54.4,36.1z"/>
			<path class="st2" d="M-49.1,1.8c-1.4,6.7-4.9,29.6-4.9,31c0,1.6,1,1.9,1.6,2c-0.6,0.5-1.3,0.8-2.1,0.8c-1.2,0-1.4-0.5-1.4-1.4
				c0-0.7,0.3-2.2,0.4-2.9c2.7-16.5,4.1-25.6,4.1-27.2c0-0.8-0.2-1.5-0.6-1.9c0.5,0,0.9-0.1,1.1-0.1C-50.2,2-49.6,2-49.1,1.8
				 M-48,0.4c-0.7,0.3-1.7,0.6-3,0.7c-0.6,0.1-2.7,0.3-4,0.3l-0.1,0.7c2.2,0.2,2.7,0.6,2.7,2c0,2-2.7,18.5-4,27
				c-0.2,1.1-0.4,2.4-0.4,3s0.1,2.4,2.4,2.4c2.5,0,4.5-2.7,5.5-4.4l-0.6-0.5c-0.4,0.6-1.4,2.1-2.5,2.1c-0.6,0-0.8-0.3-0.8-1
				c0-1.5,4.3-29,5.2-32.2L-48,0.4L-48,0.4z"/>
		</g>
		<g>
			<path class="st2" d="M-38.4,36.2c-4.1,0-6.1-2.7-6.1-7.9C-44.5,20-40,14-33.8,14c3.3,0,5.3,1.5,5.3,4.1c0,5.8-6.8,6.5-12.7,6.5
				h-0.5l0,0.5c-0.1,1.1-0.1,2-0.1,2.8c0,4.6,1.7,6.8,5.2,6.8c1.5,0,3.1-0.4,4.6-1.3C-33.4,34.6-35.6,36.2-38.4,36.2z M-34.8,14.5
				c-0.6,0-1.5,0.1-2.6,0.7c-1.3,0.8-3.5,3-4.2,8.6l-0.1,0.6h0.6c0.8,0,2.4,0,3.9-0.3c3.7-0.7,5.7-2.7,5.7-5.8
				C-31.4,15-33.5,14.5-34.8,14.5z"/>
			<path class="st2" d="M-32.6,14.6c2.3,0.3,3.6,1.6,3.6,3.5c0,2.9-2,4.4-4.7,5.2c1.8-1.1,2.7-2.9,2.7-5.1
				C-30.9,16.5-31.5,15.3-32.6,14.6 M-39.5,16.5c-1.1,1.4-2.1,3.7-2.6,7.2l-0.1,0.4h0l-0.1,0.6l0,0.2h0l0,0.1
				c-0.1,1.1-0.1,2-0.1,2.8c0,4.8,1.9,7.3,5.7,7.3c0.4,0,0.8,0,1.1-0.1c-0.9,0.3-1.9,0.6-3,0.6c-3.7,0-5.6-2.5-5.6-7.4
				C-44.1,23.7-42.5,19.1-39.5,16.5 M-33.8,13.5c-6.9,0-11.2,6.6-11.2,14.7c0,6,2.7,8.4,6.6,8.4c4.9,0,7.8-4,8.2-4.6l-0.3-0.3
				c-0.1,0.1-2.6,2.4-6.1,2.4c-2.4,0-4.7-1-4.7-6.3c0-0.7,0-1.7,0.1-2.7c4.4,0,13.2-0.3,13.2-7C-28,15.6-29.8,13.5-33.8,13.5
				L-33.8,13.5z M-41.1,23.9c0.6-5,2.5-7.3,4-8.2c0.9-0.5,1.7-0.6,2.3-0.6c2.7,0,2.8,2.4,2.8,3.3c0,2.8-1.7,4.7-5.3,5.3
				C-38.7,23.9-40.3,23.9-41.1,23.9L-41.1,23.9z"/>
		</g>
	</g>
	<g class="st1">
		<g>
			<g>
				<path class="st2" d="M-127,20.5c-0.6-0.1-1.1-0.2-1.6-0.4c-0.7-0.3-0.9-0.4-0.9-0.4c0-0.1,0-0.2,0-0.3c0.1-0.5,0.1-0.9,0.1-1.3
					c0.3,0.6,0.6,1.1,1.1,1.5C-127.8,20-127.4,20.3-127,20.5z M-121.6,19.1c0.3-0.6,0.5-1.2,0.5-1.8c0-0.8-0.3-1.5-0.8-2.1
					c-0.5-0.6-1.5-1.3-3-2c-1.7-0.9-2.4-1.3-2.7-1.6c-0.6-0.5-1.1-1-1.4-1.6c-0.2-0.4-0.3-0.9-0.3-1.4c0-0.7,0.2-1.3,0.6-1.9
					c-0.1,0.3-0.2,0.7-0.2,1.1c0,0.7,0.3,1.3,0.8,1.8c0.5,0.5,1.6,1.2,3.3,2.1c1.3,0.7,2.2,1.2,2.7,1.6c0.5,0.4,0.9,0.8,1.1,1.3
					s0.4,1.1,0.4,1.7c0,0.8-0.2,1.5-0.6,2.2c-0.2,0.3-0.3,0.5-0.6,0.8C-121.7,19.2-121.6,19.1-121.6,19.1z M-121.7,6.7
					c-0.3-0.5-0.6-0.8-0.9-1.1c-0.2-0.2-0.4-0.3-0.6-0.4c0.1,0,0.3,0.1,0.4,0.1c0.3,0.1,0.7,0.3,1,0.5c0,0.4,0.1,0.6,0.1,0.7
					L-121.7,6.7z"/>
				<path class="st2" d="M-128.2,10.2c0.4,0.4,1.3,0.9,3.2,1.9c1.3,0.6,2.1,1.2,2.7,1.6c0.4,0.3,0.8,0.7,1,1.1
					c0.1,0.1,0.1,0.3,0.2,0.5c-0.1-0.1-0.2-0.3-0.3-0.4c-0.6-0.6-1.6-1.4-3.1-2.2c-1.7-0.9-2.3-1.3-2.6-1.5
					C-127.6,10.9-127.9,10.6-128.2,10.2 M-124.8,4.5c-1.5,0-2.7,0.4-3.6,1.2c-0.9,0.8-1.3,1.8-1.3,2.9c0,0.6,0.1,1.2,0.4,1.7
					c0.3,0.6,0.9,1.2,1.5,1.7c0.4,0.3,1.3,0.9,2.8,1.6s2.3,1.4,2.8,1.9s0.7,1.2,0.7,1.8c0,0.5-0.2,1-0.5,1.5s-0.7,0.9-1.3,1.2
					c-0.5,0.3-1.1,0.4-1.8,0.4c-1.1,0-2-0.4-2.8-1.2c-0.8-0.8-1.3-1.7-1.4-2.7c0-0.1-0.1-0.3-0.1-0.3s-0.1-0.1-0.2-0.1
					c-0.1,0-0.1,0-0.2,0.1c0,0.1-0.1,0.3-0.1,0.7c0,0.6-0.1,1.4-0.2,2.4c0,0.1,0,0.3,0,0.3c0,0.1,0.1,0.3,0.2,0.4
					c0.1,0.1,0.5,0.3,1.1,0.5c1,0.4,2.1,0.5,3.2,0.5c1.3,0,2.3-0.2,3.1-0.6c0.8-0.4,1.4-1,1.8-1.7c0.4-0.8,0.7-1.6,0.7-2.5
					c0-0.7-0.1-1.3-0.4-1.9s-0.7-1.1-1.3-1.5c-0.6-0.4-1.5-1-2.8-1.7c-1.7-0.9-2.8-1.5-3.2-2c-0.4-0.4-0.6-0.9-0.6-1.5
					c0-0.7,0.3-1.3,0.9-1.8c0.6-0.5,1.4-0.8,2.3-0.8c0.9,0,1.7,0.3,2.3,0.8s1.1,1.4,1.3,2.5l0.1,0c0.1,0,0.1,0,0.2-0.1
					c0-0.1,0-0.4,0.1-0.9l0.1-1.1c0-0.1,0-0.4-0.1-0.9c-0.5-0.3-0.9-0.6-1.4-0.7C-123.2,4.6-123.9,4.5-124.8,4.5L-124.8,4.5z"/>
			</g>
		</g>
		<g>
			<g>
				<path class="st2" d="M-121.4,31c0.4-0.2,0.9-0.5,1.3-0.9c0.5-0.5,0.9-1,1.2-1.5c0,0.4,0.1,0.8,0.1,1.3c0,0.1,0,0.2,0,0.3
					c-0.1,0.1-0.2,0.2-0.9,0.5C-120.3,30.8-120.9,30.9-121.4,31z M-126.7,29.8c-0.2-0.2-0.4-0.5-0.6-0.8c-0.4-0.7-0.6-1.4-0.6-2.2
					c0-0.6,0.1-1.2,0.4-1.7c0.3-0.5,0.6-0.9,1.1-1.3c0.5-0.4,1.5-1,2.7-1.6c1.8-0.9,2.9-1.6,3.3-2.1c0.5-0.5,0.8-1.1,0.8-1.8
					c0-0.4-0.1-0.7-0.2-1.1c0.4,0.5,0.6,1.2,0.6,1.9c0,0.5-0.1,1-0.3,1.4c-0.3,0.5-0.8,1.1-1.4,1.6c-0.3,0.2-1,0.7-2.7,1.5
					c-1.5,0.8-2.4,1.4-3,2c-0.5,0.6-0.8,1.4-0.8,2.1c0,0.6,0.2,1.2,0.5,1.8C-126.8,29.7-126.7,29.7-126.7,29.8z M-126.8,17
					c0,0,0-0.3,0.1-0.6c0.4-0.2,0.7-0.4,1.1-0.5c0.1,0,0.3-0.1,0.4-0.1c-0.2,0.1-0.4,0.3-0.6,0.4c-0.3,0.3-0.7,0.7-0.9,1.1
					L-126.8,17z"/>
				<path class="st2" d="M-120.2,20.7c-0.3,0.4-0.6,0.7-1,1c-0.3,0.2-0.9,0.6-2.6,1.5c-1.5,0.8-2.6,1.5-3.1,2.2
					c-0.1,0.1-0.2,0.3-0.3,0.5c0.1-0.2,0.1-0.3,0.2-0.5c0.2-0.4,0.5-0.8,1-1.1c0.5-0.4,1.4-0.9,2.7-1.6
					C-121.5,21.7-120.6,21.1-120.2,20.7 M-123.6,15.1c-0.8,0-1.6,0.1-2.2,0.3c-0.4,0.1-0.9,0.4-1.4,0.7c-0.1,0.5-0.1,0.9-0.1,0.9
					l0.1,1.1c0,0.5,0,0.8,0.1,0.9c0.1,0,0.1,0,0.2,0l0.1,0c0.3-1.1,0.7-2,1.3-2.5c0.6-0.5,1.4-0.8,2.3-0.8c0.9,0,1.7,0.3,2.3,0.8
					c0.6,0.5,0.9,1.1,0.9,1.8c0,0.5-0.2,1-0.6,1.5c-0.4,0.4-1.5,1.1-3.2,2c-1.3,0.7-2.2,1.2-2.8,1.7c-0.6,0.4-1,0.9-1.3,1.5
					c-0.3,0.6-0.4,1.2-0.4,1.9c0,0.9,0.2,1.7,0.7,2.5c0.4,0.8,1.1,1.4,1.8,1.7c0.8,0.4,1.8,0.6,3.1,0.6c1.1,0,2.2-0.2,3.2-0.5
					c0.6-0.2,1-0.4,1.1-0.5c0.1-0.1,0.2-0.3,0.2-0.4c0-0.1,0-0.2,0-0.3c-0.1-1-0.2-1.8-0.2-2.4c0-0.4-0.1-0.6-0.1-0.7
					c0-0.1-0.1-0.1-0.2-0.1c-0.1,0-0.1,0-0.2,0.1s-0.1,0.1-0.1,0.3c-0.1,1-0.6,1.9-1.4,2.7c-0.8,0.8-1.8,1.2-2.8,1.2
					c-0.6,0-1.2-0.1-1.8-0.4s-1-0.7-1.3-1.2c-0.3-0.5-0.5-1-0.5-1.5c0-0.7,0.2-1.3,0.7-1.8c0.5-0.5,1.4-1.2,2.8-1.9
					c1.4-0.7,2.3-1.3,2.8-1.6c0.7-0.5,1.2-1.1,1.5-1.7c0.3-0.5,0.4-1,0.4-1.7c0-1.1-0.4-2.1-1.3-2.9
					C-120.9,15.4-122.1,15.1-123.6,15.1L-123.6,15.1z"/>
			</g>
		</g>
		<g>
			<g>
				<path class="st2" d="M-123.8,35.9c-0.6,0-1-0.5-1-1s0.5-1,1-1s1,0.5,1,1S-123.2,35.9-123.8,35.9z"/>
				<path class="st2" d="M-123.8,34.3c0.3,0,0.5,0.2,0.5,0.5s-0.2,0.5-0.5,0.5s-0.5-0.2-0.5-0.5S-124.1,34.3-123.8,34.3
					 M-123.8,33.3c-0.8,0-1.5,0.7-1.5,1.5c0,0.8,0.7,1.5,1.5,1.5s1.5-0.7,1.5-1.5C-122.3,34-122.9,33.3-123.8,33.3L-123.8,33.3z"/>
			</g>
		</g>
		<g>
			<g>
				<path class="st2" d="M-123.8,2.7c-0.6,0-1-0.5-1-1s0.5-1,1-1s1,0.5,1,1S-123.2,2.7-123.8,2.7z"/>
				<path class="st2" d="M-123.8,1.2c0.3,0,0.5,0.2,0.5,0.5s-0.2,0.5-0.5,0.5s-0.5-0.2-0.5-0.5S-124.1,1.2-123.8,1.2 M-123.8,0.2
					c-0.8,0-1.5,0.7-1.5,1.5c0,0.8,0.7,1.5,1.5,1.5s1.5-0.7,1.5-1.5C-122.3,0.9-122.9,0.2-123.8,0.2L-123.8,0.2z"/>
			</g>
		</g>
	</g>
</g>
<g class="st0">
	<g class="st1">
		<g>
			<path class="st2" d="M-69.8-86.1l0.7-0.2l6.6,25.4l6.9-11.5l6.9,11.5l6.6-25.4l0.7,0.2l-6.8,26.4H-49l-6.6-11.1l-6.6,11.1H-63
				L-69.8-86.1z"/>
			<polygon class="st2" points="-42.2,-86.2 -48.8,-60.8 -55.6,-72.3 -62.5,-60.8 -69.1,-86.2 -69.8,-86.1 -63,-59.7 -62.2,-59.7 
				-55.6,-70.8 -49,-59.7 -48.3,-59.7 -41.5,-86.1 			"/>
		</g>
		<g>
			<circle class="st2" cx="-35" cy="-84.6" r="0.8"/>
			<path class="st2" d="M-35-85c0.2,0,0.3,0.1,0.3,0.3c0,0.2-0.2,0.3-0.3,0.3s-0.3-0.2-0.3-0.3C-35.3-84.8-35.1-85-35-85 M-35-86
				c-0.7,0-1.3,0.6-1.3,1.3s0.6,1.3,1.3,1.3s1.3-0.6,1.3-1.3C-33.7-85.4-34.3-86-35-86L-35-86z M-34.6-79.2h-0.8v13.1
				c0,4.1,1.9,6.3,5.1,6.3v-0.8c-2.8,0-4.4-1.8-4.4-5.5L-34.6-79.2L-34.6-79.2z"/>
		</g>
		<g>
			<path class="st2" d="M-27.3-79.2h2.6v-5.6h0.8v5.6h10.7v0.7H-24V-67c0,4.2,1.9,6.7,5.9,6.7c2,0,3.4-0.6,4.9-1.4l0.4,0.7
				c-1.6,0.9-3.2,1.5-5.3,1.5c-4.5,0-6.6-2.8-6.6-7.5v-11.4h-2.6V-79.2z"/>
			<path class="st2" d="M-24-84.8h-0.8v5.6h-2.6v0.7h2.6V-67c0,4.7,2.1,7.5,6.6,7.5c2.2,0,3.7-0.6,5.3-1.5l-0.4-0.7
				c-1.5,0.8-3,1.4-4.9,1.4c-4,0-5.9-2.5-5.9-6.7v-11.4h10.7v-0.7H-24V-84.8L-24-84.8z"/>
		</g>
		<g>
			<path class="st2" d="M-8.7-60.1V-86H-8V-75c1.1-2.1,3.6-4.5,8.7-4.5c5.3,0,8.4,3.3,8.4,8.8v10.6H8.3v-10.6c0-5.1-2.8-8-7.7-8
				c-5.7,0-7.8,3.3-8.7,5.5v13.2C-8-60.1-8.7-60.1-8.7-60.1z"/>
			<path class="st2" d="M-8-86h-0.8v25.8H-8v-13.2c0.8-2.2,3-5.5,8.6-5.5c4.9,0,7.7,3,7.7,8v10.6h0.8v-10.6c0-5.5-3.2-8.8-8.4-8.8
				c-5.1,0-7.5,2.4-8.7,4.5L-8-86L-8-86z"/>
		</g>
	</g>
	<g class="st1">
		<g>
			<path class="st2" d="M34.9-60.1c-2.1,0-4.9-0.3-7-0.9c0-0.1,0.1-1,0.1-1c0.1-0.9,0.3-1.7,0.3-3.3c0.3,1.2,0.9,2.1,1.6,2.8
				c1.2,1.1,2.8,1.7,4.9,1.7c6.8,0,7.5-5.1,7.5-7.3c0-2.3-1-4-3.2-5.8L34.9-77c-3.1-2.4-4.2-4.3-4.2-7.1c0-1.9,0.7-7.9,9.3-7.9h0.1
				c2.4,0,4.9,0.2,6.9,0.5c-0.1,0.6-0.2,1.1-0.3,1.7c0,0.3-0.1,0.5-0.1,0.8c-0.1,0.6-0.2,1.3-0.3,2c-0.2-1.1-0.8-2.1-1.5-2.8
				c-1.1-1-2.7-1.5-4.7-1.5c-6.5,0-7.1,4.8-7.1,6.2c0,2.5,0.9,4.1,3.5,5.9l4.2,3.1c3.1,2.2,4.2,4.3,4.2,7.6
				C45-67.9,44.7-60.1,34.9-60.1z"/>
			<path class="st2" d="M43.4-91.5c1.1,0.1,2.2,0.2,3.1,0.3c-0.1,0.4-0.1,0.8-0.2,1.2c0,0.3-0.1,0.5-0.1,0.7c0,0,0,0,0,0
				c-0.3-0.4-0.6-0.8-0.9-1.2C44.7-90.8,44.1-91.2,43.4-91.5 M35.3-90.7c-2.4,1.6-2.7,4.4-2.7,5.4c0,2.7,1,4.4,3.7,6.3l4.2,3
				c2.9,2.1,4,4.1,4,7.2c0,0.7-0.2,5.5-5.1,7.4c2.2-1.3,3.4-3.6,3.4-6.7c0-2.4-1.1-4.3-3.4-6.2l-4.2-3.2c-3-2.3-4-4-4-6.7
				C31.2-85.5,31.5-89.1,35.3-90.7 M28.7-63.2c0.3,0.4,0.6,0.8,0.9,1.2c0.6,0.5,1.2,0.9,1.9,1.2c-1.1-0.1-2.1-0.3-3-0.5
				c0-0.2,0.1-0.4,0.1-0.5C28.6-62.3,28.6-62.7,28.7-63.2 M40-92.6c-8.5,0-9.8,5.7-9.8,8.4c0,3.2,1.3,5.1,4.4,7.5l4.2,3.2
				c2.2,1.7,3,3.4,3,5.4c0,1.2-0.1,6.8-7,6.8c-2,0-3.4-0.5-4.5-1.5c-0.9-0.9-1.5-2.1-1.7-3.8h-0.7c-0.1,2.9-0.3,3.7-0.4,5.2
				c-0.1,0.4-0.1,0.3-0.1,0.7c2.1,0.7,5.2,1,7.6,1c9.1,0,10.6-6.5,10.6-9.1c0-3.3-1.1-5.6-4.4-8l-4.2-3.1c-2.5-1.8-3.3-3.3-3.3-5.5
				c0-1.1,0.3-5.7,6.6-5.7c1.8,0,3.3,0.4,4.3,1.4c1,0.9,1.5,2.3,1.5,4h0.7c0-0.6,0.2-2.2,0.3-3.4c0.2-1,0.3-2,0.5-3
				C45.5-92.4,42.7-92.6,40-92.6C40.1-92.6,40.1-92.6,40-92.6L40-92.6z"/>
		</g>
		<g>
			<path class="st2" d="M54.7-60.1c-2.3,0-3.3-1.1-3.3-3.5c0-1.3,0.2-2.5,0.5-4.2l2.3-13.1h-2.7c0.7-0.2,1.7-0.5,2.3-1.2l0.1-0.1
				c0.4-0.4,1.3-1.4,2.3-4.9l0.1-0.4l1.6-0.2c-0.2,1.2-0.7,3.9-1,5.5l-0.1,0.6H63l-0.1,0.7h-6.2l-2.3,14.4c-0.1,0.5-0.2,1.4-0.2,2.1
				c0,1.7,0.9,2.7,2.5,2.7c1,0,2.1-0.4,3.4-1.2C57.8-60.5,55.9-60.1,54.7-60.1z"/>
			<path class="st2" d="M57.3-87.1c-0.3,1.4-0.6,3.5-0.8,4.9l-0.1,0.9h0l-0.1,0.8l-2.3,14c-0.1,0.6-0.2,1.4-0.2,2.2
				c0,2,1.1,3.2,3,3.2c0.2,0,0.4,0,0.6,0c-1.1,0.6-1.9,0.7-2.6,0.7c-2,0-2.8-0.9-2.8-3c0-1.2,0.2-2.5,0.5-4.1l2.2-12.5l0.2-1.2h-1
				c0.1-0.1,0.3-0.2,0.4-0.3l0-0.1l0,0l0-0.1c0.4-0.4,1.4-1.5,2.4-5.1l0-0.1L57.3-87.1 M58.5-88.3L55.8-88l-0.2,0.7
				c-1,3.7-2,4.5-2.2,4.8c-0.8,0.8-2.5,1.1-2.9,1.2l-0.2,0.8h3.2l-2.2,12.5c-0.3,1.6-0.5,3-0.5,4.3c0,2.1,0.8,4,3.8,4
				c2.1,0,4.4-1,7-4.6l-0.3-0.3c-2.8,2.3-4.4,2.3-4.7,2.3c-1.6,0-2-1.1-2-2.2c0-0.6,0.1-1.4,0.2-2l2.3-14h6.2l0.3-1.7h-6.2
				C57.7-84.3,58.5-88.3,58.5-88.3L58.5-88.3z"/>
		</g>
		<g>
			<path class="st2" d="M60.5-47.3c-0.9,0-3.9-0.1-3.9-2c0-0.7,0.5-1.4,1.3-1.4c0.7,0,0.9,0.4,1.1,0.8c0,0,0.2,0.4,0.3,0.5
				c0.4,0.8,0.8,1.5,2,1.5c0.9,0,3.1,0,5.9-4.2c0.9-1.3,1.2-1.8,4.1-7l0.1-0.2l-3.5-19.2c-0.2-1.1-0.4-2-1.6-2c-0.5,0-1,0.3-1.5,0.9
				c1.8-2.7,3.1-2.7,3.9-2.7c0.9,0,1.4,0.4,1.7,1.4c0.2,0.7,1.9,9.3,2.8,17.6l0.2,1.7l0.8-1.6c5.3-10.9,6.3-13.6,6.3-14.6
				c0-0.6-0.2-0.9-0.6-1.4l-0.1-0.1c-0.3-0.4-0.6-0.8-0.6-1.5c0-0.4,0.3-1.5,1.9-1.5c0.8,0,1.8,0.2,1.8,1.9c0,1-0.4,2.1-1.3,4.2
				c-3.2,7.2-10.4,19.9-12.2,22.6C66.1-48.2,64-47.3,60.5-47.3z"/>
			<path class="st2" d="M81.1-81.8c0.8,0,1.3,0.2,1.3,1.4c0,0.9-0.3,2-1.2,4c-1.1,2.6-2.8,5.8-4.5,9c3.5-7.4,4.2-9.4,4.2-10.4
				c0-0.8-0.3-1.2-0.7-1.8l-0.1-0.1c-0.3-0.4-0.5-0.6-0.5-1.2C79.7-80.8,79.8-81.8,81.1-81.8 M68.6-81.8c0.6,0,1,0.2,1.3,1
				c0.2,0.7,1.9,9.5,2.8,17.6l0.3,2.7c-1.8,3.1-3.3,5.7-3.9,6.7c-0.7,1.1-1.3,2-1.9,2.7c0.2-0.2,0.4-0.5,0.6-0.8c1-1.4,1.4-2,4.1-7
				l0.2-0.3l-0.1-0.3l-3.4-18.8l0-0.2c-0.2-1.1-0.4-2.3-1.9-2.4C67.4-81.8,68.1-81.8,68.6-81.8 M57.9-50.2c0.4,0,0.5,0.1,0.7,0.5
				l0.1,0.1c0.1,0.2,0.1,0.3,0.2,0.4c0.2,0.5,0.5,1,1,1.3c-1-0.1-2.8-0.3-2.8-1.4C57.1-49.7,57.3-50.2,57.9-50.2 M81.1-82.8
				c-1.8,0-2.4,1.4-2.4,2c0,0.9,0.3,1.3,0.7,1.8s0.5,0.7,0.5,1.2c0,1-1.3,4.3-6.3,14.4c-0.9-8.1-2.6-16.9-2.8-17.7
				c-0.3-1.1-1-1.7-2.2-1.7c-1.3,0-3,0.3-5.2,4.4l0.6,0.4c0.7-1,1.5-2,2.2-2c0.8,0,0.9,0.5,1.1,1.8l3.4,18.8c-2.8,5.1-3.1,5.7-4,7
				c-2.7,3.9-4.6,4-5.5,4c-1.1,0-1.2-0.7-1.8-1.7c-0.2-0.3-0.5-1.1-1.6-1.1c-1.1,0-1.8,0.9-1.8,1.9c0,2.4,3.7,2.5,4.4,2.5
				c3.6,0,6-1,9.4-6.4c1.8-2.8,9-15.4,12.2-22.7c0.9-2.1,1.3-3.3,1.3-4.4C83.4-81.7,82.9-82.8,81.1-82.8L81.1-82.8z"/>
		</g>
		<g>
			<path class="st2" d="M88.3-60.2c-1.7,0-1.9-1-1.9-1.9c0-0.7,0.2-1.9,0.4-3c1.9-11.3,4.1-25.2,4.1-27.1c0-1.4-0.6-2-1.6-2.3
				c1.1-0.1,2.2-0.2,2.6-0.3c1-0.1,1.8-0.3,2.5-0.5c-1.2,5.4-5,30.2-5,31.7c0,1.2,0.7,1.5,1.3,1.5c0.7,0,1.3-0.4,1.8-0.9
				C91.5-61.6,90-60.2,88.3-60.2z"/>
			<path class="st2" d="M93.6-94.5c-1.4,6.7-4.9,29.6-4.9,31c0,1.6,1,1.9,1.6,2c-0.6,0.5-1.3,0.8-2.1,0.8c-1.2,0-1.4-0.5-1.4-1.4
				c0-0.7,0.3-2.2,0.4-2.9c2.7-16.5,4.1-25.7,4.1-27.2c0-0.8-0.2-1.5-0.6-1.9c0.5-0.1,0.9-0.1,1.1-0.1
				C92.5-94.2,93.1-94.3,93.6-94.5 M94.8-95.9c-0.7,0.3-1.7,0.6-3,0.7c-0.6,0.1-2.7,0.3-4,0.3l-0.1,0.7c2.2,0.2,2.7,0.6,2.7,2
				c0,2-2.7,18.5-4,27c-0.2,1.1-0.4,2.4-0.4,3s0.1,2.4,2.4,2.4c2.5,0,4.5-2.7,5.5-4.4l-0.6-0.5c-0.4,0.6-1.4,2.1-2.5,2.1
				c-0.6,0-0.8-0.3-0.8-1c0-1.5,4.3-29,5.2-32.2L94.8-95.9L94.8-95.9z"/>
		</g>
		<g>
			<path class="st2" d="M104.3-60.1c-4.1,0-6.1-2.7-6.1-7.9c0-8.3,4.5-14.2,10.7-14.2c3.3,0,5.3,1.5,5.3,4.1c0,5.8-6.8,6.5-12.7,6.5
				h-0.5l0,0.5c-0.1,1.1-0.1,2-0.1,2.8c0,4.6,1.7,6.8,5.2,6.8c1.5,0,3.1-0.4,4.6-1.3C109.4-61.7,107.2-60.1,104.3-60.1z M108-81.8
				c-0.6,0-1.5,0.1-2.6,0.7c-1.3,0.8-3.5,3-4.2,8.6l-0.1,0.6h0.6c0.8,0,2.4,0,3.9-0.3c3.7-0.7,5.7-2.7,5.7-5.8
				C111.3-81.3,109.2-81.8,108-81.8z"/>
			<path class="st2" d="M110.1-81.7c2.3,0.3,3.6,1.6,3.6,3.5c0,2.9-2,4.4-4.7,5.2c1.8-1.1,2.7-2.8,2.7-5.1
				C111.8-79.8,111.2-81,110.1-81.7 M103.3-79.7c-1.1,1.4-2.1,3.7-2.6,7.2l-0.1,0.4h0l-0.1,0.6l0,0.2h0l0,0.1
				c-0.1,1.1-0.1,2-0.1,2.8c0,4.8,1.9,7.3,5.7,7.3c0.4,0,0.8,0,1.1-0.1c-0.9,0.3-1.9,0.6-3,0.6c-3.7,0-5.6-2.5-5.6-7.4
				C98.7-72.6,100.3-77.2,103.3-79.7 M108.9-82.8c-6.9,0-11.2,6.6-11.2,14.7c0,6,2.7,8.4,6.6,8.4c4.9,0,7.8-4,8.2-4.6l-0.3-0.3
				c-0.1,0.1-2.6,2.4-6.1,2.4c-2.4,0-4.7-1-4.7-6.3c0-0.7,0-1.7,0.1-2.7c4.4,0,13.2-0.3,13.2-7C114.8-80.7,112.9-82.8,108.9-82.8
				L108.9-82.8z M101.7-72.4c0.6-5,2.5-7.3,4-8.2c0.9-0.5,1.7-0.6,2.3-0.6c2.7,0,2.8,2.4,2.8,3.3c0,2.8-1.7,4.7-5.3,5.3
				C104-72.4,102.4-72.4,101.7-72.4L101.7-72.4z"/>
		</g>
	</g>
	<g class="st1">
		<g>
			<g>
				<path class="st2" d="M15.8-75.8c-0.6-0.1-1.1-0.2-1.6-0.4c-0.7-0.3-0.9-0.4-0.9-0.4c-0.1-0.1,0-0.2,0-0.3
					c0.1-0.5,0.1-0.9,0.1-1.3c0.3,0.6,0.7,1.1,1.2,1.5C14.9-76.3,15.3-76,15.8-75.8z M21.2-77.2c0.3-0.6,0.5-1.2,0.5-1.8
					c0-0.8-0.3-1.5-0.8-2.1c-0.5-0.6-1.5-1.3-3-2c-1.7-0.9-2.4-1.3-2.7-1.5c-0.6-0.5-1.1-1-1.4-1.6c-0.2-0.4-0.3-0.9-0.3-1.4
					c0-0.7,0.2-1.3,0.6-1.9c-0.2,0.3-0.2,0.7-0.2,1.1c0,0.7,0.3,1.3,0.8,1.8c0.5,0.5,1.6,1.2,3.3,2.1c1.3,0.7,2.2,1.2,2.7,1.6
					c0.5,0.4,0.9,0.8,1.1,1.3s0.4,1.1,0.4,1.7c0,0.8-0.2,1.5-0.6,2.2c-0.2,0.3-0.3,0.5-0.6,0.8C21.1-77.1,21.1-77.1,21.2-77.2z
					 M21.1-89.5c-0.3-0.5-0.6-0.8-0.9-1.1c-0.2-0.2-0.4-0.3-0.6-0.4c0.1,0,0.3,0.1,0.4,0.1c0.3,0.1,0.7,0.3,1,0.5
					c0,0.4,0.1,0.6,0.1,0.7L21.1-89.5z"/>
				<path class="st2" d="M14.6-86.1c0.4,0.4,1.3,0.9,3.2,1.9c1.3,0.7,2.1,1.2,2.7,1.6c0.4,0.3,0.8,0.7,1,1.2
					c0.1,0.1,0.1,0.3,0.2,0.5c-0.1-0.2-0.2-0.3-0.3-0.4c-0.6-0.7-1.6-1.4-3.1-2.2c-1.7-0.9-2.3-1.3-2.6-1.5
					C15.2-85.4,14.8-85.7,14.6-86.1 M18-91.7c-1.5,0-2.7,0.4-3.6,1.2c-0.9,0.8-1.3,1.8-1.3,2.9c0,0.6,0.1,1.2,0.4,1.7
					c0.3,0.6,0.9,1.2,1.5,1.7c0.4,0.3,1.3,0.9,2.8,1.6c1.4,0.7,2.3,1.4,2.8,1.9c0.5,0.5,0.7,1.2,0.7,1.8c0,0.5-0.2,1-0.5,1.5
					c-0.3,0.5-0.7,0.9-1.3,1.2c-0.5,0.3-1.1,0.4-1.8,0.4c-1.1,0-2-0.4-2.8-1.2c-0.8-0.8-1.3-1.7-1.4-2.7c0-0.2-0.1-0.3-0.1-0.3
					c0,0-0.1-0.1-0.2-0.1c-0.1,0-0.2,0-0.2,0.1c0,0.1-0.1,0.3-0.1,0.7c0,0.6-0.1,1.4-0.2,2.4c0,0.1,0,0.3,0,0.3
					c0,0.2,0.1,0.3,0.2,0.4c0.1,0.1,0.5,0.3,1.1,0.5c1,0.3,2.1,0.5,3.2,0.5c1.3,0,2.3-0.2,3.1-0.6c0.8-0.4,1.4-1,1.8-1.7
					c0.4-0.8,0.7-1.6,0.7-2.5c0-0.7-0.1-1.3-0.4-1.9c-0.3-0.6-0.7-1.1-1.3-1.5s-1.5-1-2.8-1.7c-1.7-0.9-2.8-1.5-3.2-2
					c-0.4-0.4-0.6-0.9-0.6-1.5c0-0.7,0.3-1.3,0.9-1.8c0.6-0.5,1.4-0.8,2.3-0.8c0.9,0,1.7,0.3,2.3,0.8c0.6,0.5,1.1,1.4,1.3,2.5l0.1,0
					c0.1,0,0.1,0,0.2-0.1c0-0.1,0-0.4,0.1-0.9l0.1-1.1c0-0.1,0-0.4-0.1-0.9c-0.5-0.3-0.9-0.6-1.4-0.7C19.5-91.6,18.8-91.7,18-91.7
					L18-91.7z"/>
			</g>
		</g>
		<g>
			<g>
				<path class="st2" d="M21.3-65.3c0.4-0.2,0.9-0.5,1.3-0.9c0.5-0.5,0.9-1,1.2-1.5c0,0.4,0.1,0.8,0.1,1.3c0,0.1,0,0.2,0,0.3
					c-0.1,0.1-0.2,0.2-0.9,0.5C22.4-65.5,21.9-65.4,21.3-65.3z M16-66.5c-0.2-0.2-0.4-0.5-0.6-0.8c-0.4-0.7-0.6-1.4-0.6-2.2
					c0-0.6,0.1-1.2,0.4-1.7c0.3-0.5,0.6-0.9,1.1-1.3c0.5-0.4,1.5-0.9,2.7-1.6c1.8-0.9,2.9-1.6,3.3-2.1c0.5-0.5,0.8-1.1,0.8-1.8
					c0-0.4-0.1-0.7-0.2-1.1c0.4,0.6,0.6,1.2,0.6,1.9c0,0.5-0.1,1-0.3,1.4c-0.3,0.5-0.8,1.1-1.4,1.6c-0.3,0.2-1,0.7-2.7,1.6
					c-1.5,0.8-2.4,1.4-3,2c-0.5,0.6-0.8,1.4-0.8,2.1c0,0.6,0.2,1.2,0.5,1.8C16-66.6,16-66.6,16-66.5z M16-79.3c0,0,0-0.3,0.1-0.6
					c0.4-0.2,0.7-0.4,1.1-0.5c0.1,0,0.3-0.1,0.4-0.1c-0.2,0.1-0.4,0.3-0.6,0.4c-0.3,0.3-0.7,0.7-0.9,1.1L16-79.3z"/>
				<path class="st2" d="M22.5-75.6c-0.3,0.3-0.6,0.7-1,1c-0.3,0.2-0.9,0.6-2.6,1.5c-1.5,0.8-2.6,1.5-3.1,2.2
					c-0.1,0.2-0.2,0.3-0.3,0.5c0.1-0.2,0.1-0.3,0.2-0.5c0.2-0.4,0.5-0.8,1-1.2c0.5-0.4,1.4-0.9,2.7-1.6
					C21.3-74.6,22.1-75.2,22.5-75.6 M19.1-81.2c-0.8,0-1.6,0.1-2.2,0.3c-0.4,0.2-0.9,0.4-1.4,0.7c-0.1,0.5-0.1,0.8-0.1,0.9l0.1,1.1
					c0,0.5,0,0.8,0.1,0.9c0.1,0,0.1,0.1,0.2,0.1l0.1,0c0.3-1.1,0.7-2,1.3-2.5c0.6-0.5,1.4-0.8,2.3-0.8c0.9,0,1.7,0.3,2.3,0.8
					c0.6,0.5,0.9,1.1,0.9,1.8c0,0.5-0.2,1-0.6,1.5c-0.4,0.4-1.5,1.1-3.2,2c-1.3,0.7-2.2,1.2-2.8,1.7c-0.6,0.4-1,0.9-1.3,1.5
					c-0.3,0.6-0.4,1.2-0.4,1.9c0,0.9,0.2,1.7,0.7,2.5c0.4,0.8,1.1,1.3,1.8,1.7c0.8,0.4,1.8,0.6,3.1,0.6c1.1,0,2.2-0.2,3.2-0.5
					c0.6-0.2,1-0.4,1.1-0.5c0.1-0.1,0.2-0.3,0.2-0.4c0-0.1,0-0.2,0-0.3c-0.1-1-0.2-1.8-0.2-2.4c0-0.4-0.1-0.6-0.1-0.7
					c0-0.1-0.1-0.1-0.2-0.1c-0.1,0-0.1,0-0.2,0.1c-0.1,0.1-0.1,0.2-0.1,0.3c-0.1,1-0.6,1.9-1.4,2.7c-0.8,0.8-1.8,1.2-2.8,1.2
					c-0.6,0-1.2-0.1-1.8-0.4c-0.5-0.3-1-0.7-1.3-1.2c-0.3-0.5-0.5-1-0.5-1.5c0-0.7,0.2-1.3,0.7-1.8c0.5-0.6,1.4-1.2,2.8-1.9
					c1.4-0.7,2.3-1.3,2.8-1.6c0.7-0.5,1.2-1.1,1.5-1.7c0.3-0.5,0.4-1,0.4-1.7c0-1.1-0.4-2.1-1.3-2.9C21.8-80.8,20.6-81.2,19.1-81.2
					L19.1-81.2z"/>
			</g>
		</g>
		<g>
			<g>
				<path class="st2" d="M18.9-60.4c-0.6,0-1-0.5-1-1s0.5-1,1-1s1,0.5,1,1S19.5-60.4,18.9-60.4z"/>
				<path class="st2" d="M18.9-61.9c0.3,0,0.5,0.2,0.5,0.5s-0.2,0.5-0.5,0.5s-0.5-0.2-0.5-0.5S18.7-61.9,18.9-61.9 M18.9-62.9
					c-0.8,0-1.5,0.7-1.5,1.5c0,0.8,0.7,1.5,1.5,1.5s1.5-0.7,1.5-1.5C20.5-62.3,19.8-62.9,18.9-62.9L18.9-62.9z"/>
			</g>
		</g>
		<g>
			<g>
				<path class="st2" d="M18.9-93.5c-0.6,0-1-0.5-1-1s0.5-1,1-1s1,0.5,1,1S19.5-93.5,18.9-93.5z"/>
				<path class="st2" d="M18.9-95.1c0.3,0,0.5,0.2,0.5,0.5S19.3-94,18.9-94s-0.5-0.2-0.5-0.5S18.7-95.1,18.9-95.1 M18.9-96.1
					c-0.8,0-1.5,0.7-1.5,1.5c0,0.8,0.7,1.5,1.5,1.5s1.5-0.7,1.5-1.5C20.5-95.4,19.8-96.1,18.9-96.1L18.9-96.1z"/>
			</g>
		</g>
	</g>
</g>
<g>
	<g>
		<text transform="matrix(1 0 0 1 2119.7632 73.7079)" class="st4" style="font-size:149.7689px;">With</text>
	</g>
	<text transform="matrix(1 0 0 1 2485.7183 74.0956)" class="st6" style="font-size:185.0394px;">Style</text>
	<g>
		<g>
			<path class="st3" d="M2467.6-41.3c0.2,2,0.4,3.2,0.4,3.5l-0.2,4.1c-0.1,1.8-0.1,2.9-0.2,3.4c-0.3,0.1-0.5,0.2-0.7,0.2l-0.4-0.1
				c-1-4.3-2.6-7.4-5-9.4c-2.3-2-5.2-2.9-8.6-2.9c-3.5,0-6.4,1-8.6,2.9c-2.2,2-3.4,4.3-3.4,6.9c0,2,0.8,3.8,2.4,5.5
				c1.6,1.7,5.6,4.1,12,7.4c4.9,2.5,8.4,4.6,10.5,6.2s3.7,3.5,4.8,5.6s1.6,4.5,1.6,7.1c0,3.3-0.9,6.4-2.6,9.3
				c-1.7,2.9-4,5.1-6.9,6.5c-2.9,1.5-6.7,2.2-11.5,2.2c-4.1,0-8.1-0.7-11.9-2c-2.2-0.8-3.6-1.4-4.1-1.9c-0.5-0.5-0.7-1-0.7-1.6
				c0-0.3,0-0.8,0.1-1.3c0.4-3.6,0.7-6.6,0.7-8.9c0.1-1.4,0.2-2.3,0.3-2.5c0.1-0.2,0.4-0.3,0.7-0.3c0.3,0,0.5,0.1,0.7,0.3
				c0.2,0.2,0.3,0.6,0.3,1.1c0.3,3.8,2.1,7.2,5.3,10.1c3.1,3,6.7,4.5,10.6,4.5c2.4,0,4.7-0.5,6.7-1.5c2-1,3.6-2.5,4.8-4.4
				s1.7-3.8,1.7-5.6c0-2.5-0.9-4.8-2.6-6.8c-1.7-2.1-5.3-4.5-10.5-7.2c-5.3-2.7-8.7-4.8-10.3-6c-2.6-2.1-4.5-4.2-5.8-6.5
				c-1-1.8-1.4-3.8-1.4-6.2c0-4.3,1.7-7.9,5.1-10.8c3.4-3,7.9-4.4,13.6-4.4c3.1,0,5.8,0.4,8.1,1.1
				C2464.1-43.4,2465.8-42.5,2467.6-41.3z"/>
		</g>
		<g>
			<path class="st3" d="M2450.5-4.5c2.3-0.7,5-1.1,8.1-1.1c5.7,0,10.2,1.5,13.6,4.4c3.4,3,5.1,6.6,5.1,10.8c0,2.4-0.5,4.4-1.4,6.2
				c-1.3,2.3-3.2,4.5-5.8,6.5c-1.6,1.3-5,3.3-10.3,6c-5.3,2.8-8.8,5.2-10.5,7.2c-1.8,2.1-2.6,4.3-2.6,6.8c0,1.8,0.6,3.7,1.7,5.6
				s2.8,3.4,4.8,4.4c2,1,4.3,1.5,6.7,1.5c4,0,7.5-1.5,10.6-4.5c3.2-3,4.9-6.4,5.3-10.1c0.1-0.6,0.2-0.9,0.3-1.1
				c0.2-0.2,0.4-0.3,0.7-0.3c0.3,0,0.6,0.1,0.7,0.3c0.2,0.2,0.3,1.1,0.3,2.5c0,2.3,0.3,5.3,0.7,8.9c0.1,0.5,0.1,1,0.1,1.3
				c0,0.5-0.2,1.1-0.7,1.6c-0.5,0.5-1.9,1.1-4.1,1.9c-3.8,1.3-7.8,2-11.9,2c-4.8,0-8.6-0.7-11.5-2.2c-2.9-1.5-5.2-3.6-6.9-6.5
				c-1.7-2.9-2.6-6-2.6-9.3c0-2.6,0.5-5,1.6-7.1s2.7-4,4.8-5.6c2.1-1.6,5.6-3.7,10.5-6.2c6.5-3.3,10.5-5.8,12-7.4
				c1.6-1.7,2.4-3.5,2.4-5.5c0-2.6-1.1-4.9-3.4-6.9c-2.2-2-5.1-2.9-8.6-2.9c-3.4,0-6.2,1-8.6,2.9c-2.4,2-4,5.1-5,9.4l-0.4,0.1
				c-0.2,0-0.4-0.1-0.7-0.2c-0.1-0.5-0.2-1.6-0.2-3.4l-0.2-4.1c0-0.3,0.1-1.5,0.4-3.5C2447.2-3,2448.9-3.9,2450.5-4.5z"/>
		</g>
		<g>
			<circle class="st3" cx="2458" cy="68.9" r="5.7"/>
		</g>
		<g>
			<circle class="st3" cx="2458" cy="-55.7" r="5.7"/>
		</g>
	</g>
</g>
<g id="Text_1_">
	<text transform="matrix(1 0 0 1 0.9995 36.4199)" class="st4 st5">With</text>
</g>
<text id="Text" transform="matrix(1 0 0 1 99.0088 36.5234)" class="st6 st7">Style</text>
<g id="Contorno_1_">
	<g id="Contorno">
		<path class="st8" d="M97.1,30.4c0,0.2-0.1,0.3-0.2,0.4c-0.1,0.1-0.5,0.3-1.1,0.5c-1,0.4-2.1,0.5-3.2,0.5c-1.3,0-2.3-0.2-3.1-0.6
			c-0.8-0.4-1.4-1-1.8-1.8C87.2,28.7,87,27.9,87,27c0-0.7,0.1-1.3,0.4-1.9c0.3-0.6,0.7-1.1,1.3-1.5c0.6-0.4,1.5-1,2.8-1.7
			c1.7-0.9,2.8-1.6,3.2-2c0.4-0.5,0.6-0.9,0.6-1.5c0-0.3,0-0.5-0.2-0.8c-0.1,0.4-0.3,0.8-0.5,1.2c-0.5,0.8-1.1,1.4-1.8,1.8
			c-0.8,0.4-1.8,0.6-3.1,0.6c-1.1,0-2.2-0.2-3.2-0.5c-0.6-0.2-1-0.4-1.1-0.5c-0.1-0.1-0.2-0.3-0.2-0.4c0-0.1,0-0.2,0-0.3
			c0.1-1,0.2-1.8,0.2-2.4c0-0.4,0-0.6,0.1-0.7c0,0,0.1-0.1,0.2-0.1c0.1,0,0.1,0,0.2,0.1c0,0,0.1,0.2,0.1,0.3c0.1,1,0.6,1.9,1.4,2.7
			c0.8,0.8,1.8,1.2,2.8,1.2c0.7,0,1.3-0.1,1.8-0.4c0.5-0.3,1-0.7,1.3-1.2c0.3-0.5,0.5-1,0.5-1.5c0-0.5-0.1-1-0.4-1.4
			c-0.4-0.1-0.8-0.2-1.3-0.2c-0.9,0-1.7,0.3-2.3,0.8c-0.6,0.5-1.1,1.4-1.3,2.5l-0.1,0c0,0-0.1,0-0.2,0c0-0.1,0-0.4-0.1-0.9l0-1.1
			c0-0.1,0-0.4,0.1-0.9c0.5-0.3,0.9-0.6,1.4-0.7c0.6-0.2,1.3-0.3,2.2-0.3c0.3,0,0.7,0,1,0.1c-0.5-0.5-1.3-1-2.4-1.5
			c-1.4-0.7-2.3-1.3-2.8-1.6c-0.7-0.5-1.2-1.1-1.5-1.8c-0.3-0.5-0.4-1-0.4-1.7c0-1.1,0.5-2.1,1.3-2.9c0.9-0.8,2.1-1.2,3.6-1.2
			c0.8,0,1.6,0.1,2.2,0.3c0.5,0.2,0.9,0.4,1.4,0.7c0.1,0.5,0.1,0.9,0.1,0.9l0,1.1c0,0.5,0,0.8-0.1,0.9c-0.1,0-0.1,0-0.2,0l-0.1,0
			c-0.3-1.1-0.7-2-1.3-2.5c-0.6-0.5-1.4-0.8-2.3-0.8c-0.9,0-1.7,0.3-2.3,0.8C87.3,6.6,87,7.2,87,7.9c0,0.5,0.2,1,0.6,1.5
			c0.4,0.4,1.5,1.1,3.2,2c1.3,0.7,2.3,1.2,2.8,1.7s1,0.9,1.3,1.5c0.3,0.6,0.4,1.2,0.4,1.9c0.9,0.8,1.4,1.8,1.4,2.9
			c0,0.6-0.1,1.2-0.4,1.7c-0.3,0.6-0.9,1.2-1.6,1.8c-0.4,0.3-1.3,0.9-2.8,1.6c-1.4,0.7-2.4,1.4-2.8,1.9c-0.5,0.5-0.7,1.2-0.7,1.8
			c0,0.5,0.2,1,0.5,1.5c0.3,0.5,0.7,0.9,1.3,1.2c0.5,0.3,1.1,0.4,1.8,0.4c1.1,0,2-0.4,2.8-1.2c0.9-0.8,1.3-1.7,1.4-2.7
			c0-0.2,0-0.3,0.1-0.3c0-0.1,0.1-0.1,0.2-0.1c0.1,0,0.2,0,0.2,0.1c0,0.1,0.1,0.3,0.1,0.7c0,0.6,0.1,1.4,0.2,2.4
			C97.1,30.2,97.1,30.3,97.1,30.4z"/>
	</g>
	<g>
		<circle class="st8" cx="91.6" cy="1.8" r="1.5"/>
	</g>
	<g>
		<circle class="st8" cx="91.6" cy="35.1" r="1.5"/>
	</g>
</g>
<g>
	<g>
		<path class="st3" d="M94.2,5.6c0.1,0.5,0.1,0.9,0.1,0.9l0,1.1c0,0.5,0,0.8-0.1,0.9c-0.1,0-0.1,0.1-0.2,0.1l-0.1,0
			c-0.3-1.2-0.7-2-1.3-2.5c-0.6-0.5-1.4-0.8-2.3-0.8c-0.9,0-1.7,0.3-2.3,0.8C87.3,6.6,87,7.2,87,7.9c0,0.5,0.2,1,0.6,1.5
			c0.4,0.4,1.5,1.1,3.2,2c1.3,0.7,2.3,1.2,2.8,1.7c0.6,0.4,1,0.9,1.3,1.5c0.3,0.6,0.4,1.2,0.4,1.9c0,0.9-0.2,1.7-0.7,2.5
			c-0.5,0.8-1.1,1.4-1.8,1.7c-0.8,0.4-1.8,0.6-3.1,0.6c-1.1,0-2.2-0.2-3.2-0.5c-0.6-0.2-1-0.4-1.1-0.5c-0.1-0.1-0.2-0.3-0.2-0.4
			c0-0.1,0-0.2,0-0.3c0.1-1,0.2-1.8,0.2-2.4c0-0.4,0-0.6,0.1-0.7c0-0.1,0.1-0.1,0.2-0.1c0.1,0,0.1,0,0.2,0.1c0,0.1,0.1,0.2,0.1,0.3
			c0.1,1,0.6,1.9,1.4,2.7c0.8,0.8,1.8,1.2,2.9,1.2c0.6,0,1.2-0.1,1.8-0.4c0.5-0.3,1-0.7,1.3-1.2c0.3-0.5,0.5-1,0.5-1.5
			c0-0.7-0.2-1.3-0.7-1.8c-0.5-0.6-1.4-1.2-2.8-1.9c-1.4-0.7-2.3-1.3-2.8-1.6c-0.7-0.6-1.2-1.1-1.6-1.8c-0.3-0.5-0.4-1-0.4-1.7
			c0-1.1,0.5-2.1,1.4-2.9c0.9-0.8,2.1-1.2,3.6-1.2c0.8,0,1.6,0.1,2.2,0.3C93.2,5.1,93.7,5.3,94.2,5.6z"/>
	</g>
	<g>
		<path class="st3" d="M89.6,15.5c0.6-0.2,1.3-0.3,2.2-0.3c1.5,0,2.7,0.4,3.6,1.2c0.9,0.8,1.4,1.8,1.4,2.9c0,0.6-0.1,1.2-0.4,1.7
			c-0.3,0.6-0.9,1.2-1.6,1.8c-0.4,0.3-1.3,0.9-2.8,1.6c-1.4,0.7-2.4,1.4-2.8,1.9c-0.5,0.6-0.7,1.2-0.7,1.8c0,0.5,0.2,1,0.5,1.5
			c0.3,0.5,0.7,0.9,1.3,1.2c0.5,0.3,1.1,0.4,1.8,0.4c1.1,0,2-0.4,2.9-1.2c0.8-0.8,1.3-1.7,1.4-2.7c0-0.1,0-0.2,0.1-0.3
			c0-0.1,0.1-0.1,0.2-0.1c0.1,0,0.2,0,0.2,0.1c0,0.1,0.1,0.3,0.1,0.7c0,0.6,0.1,1.4,0.2,2.4c0,0.1,0,0.3,0,0.3
			c0,0.1-0.1,0.3-0.2,0.4c-0.1,0.1-0.5,0.3-1.1,0.5c-1,0.4-2.1,0.5-3.2,0.5c-1.3,0-2.3-0.2-3.1-0.6c-0.8-0.4-1.4-1-1.8-1.7
			C87.2,28.7,87,27.9,87,27c0-0.7,0.1-1.3,0.4-1.9c0.3-0.6,0.7-1.1,1.3-1.5s1.5-1,2.8-1.7c1.7-0.9,2.8-1.5,3.2-2
			c0.4-0.4,0.6-0.9,0.6-1.5c0-0.7-0.3-1.3-0.9-1.8c-0.6-0.5-1.4-0.8-2.3-0.8c-0.9,0-1.7,0.3-2.3,0.8c-0.6,0.5-1.1,1.4-1.3,2.5
			l-0.1,0c0,0-0.1,0-0.2-0.1c0-0.1,0-0.4-0.1-0.9l0-1.1c0-0.1,0-0.4,0.1-0.9C88.7,15.9,89.1,15.6,89.6,15.5z"/>
	</g>
	<g>
		<circle class="st3" cx="91.6" cy="35.1" r="1.5"/>
	</g>
	<g>
		<circle class="st3" cx="91.6" cy="1.8" r="1.5"/>
	</g>
</g>
</svg>
